<svg width="100" height="100" viewBox="0 0 100 100" fill="none" xmlns="http://www.w3.org/2000/svg">
<circle cx="50" cy="50" r="50" fill="black"/>
<g clip-path="url(#clip0_2128_2044)">
<path d="M29.0923 52.5927L64.8559 52.5927L55.037 62.412C54.2198 63.2292 54.2198 64.5539 55.037 65.3711C55.8543 66.1881 57.1791 66.1881 57.9961 65.3711L71.387 51.9799C72.2043 51.1627 72.2043 49.838 71.387 49.0208L57.9958 35.6296C57.5875 35.2213 57.0517 35.0167 56.5162 35.0167C55.9807 35.0167 55.4454 35.2213 55.0366 35.6296C54.2194 36.4468 54.2194 37.7715 55.0366 38.5887L64.8559 48.408H29.0923C27.9368 48.408 27 49.345 27 50.5003C27 51.6558 27.9368 52.5927 29.0923 52.5927Z" fill="white"/>
</g>
<defs>
<clipPath id="clip0_2128_2044">
<rect width="45" height="45" fill="white" transform="translate(72 73) rotate(-180)"/>
</clipPath>
</defs>
</svg>
